<svg xmlns="http://www.w3.org/2000/svg" xmlns:xlink="http://www.w3.org/1999/xlink" width="200" zoomAndPan="magnify" viewBox="0 0 150 149.999998" height="200" preserveAspectRatio="xMidYMid meet" version="1.2"><defs><clipPath id="ecb444f13e"><path d="M 32 9.429688 L 92 9.429688 L 92 112 L 32 112 Z M 32 9.429688 "/></clipPath><clipPath id="c2ddd2d189"><path d="M 31.3125 13 L 116 13 L 116 140.679688 L 31.3125 140.679688 Z M 31.3125 13 "/></clipPath></defs><g id="2172a92ead"><g clip-rule="nonzero" clip-path="url(#ecb444f13e)"><path style=" stroke:none;fill-rule:nonzero;fill:#80848d;fill-opacity:1;" d="M 39.011719 107.660156 C 39.011719 109.558594 37.484375 111.09375 35.597656 111.09375 C 33.714844 111.09375 32.183594 109.558594 32.183594 107.660156 C 32.183594 105.765625 33.714844 104.230469 35.597656 104.230469 C 37.484375 104.230469 39.011719 105.765625 39.011719 107.660156 Z M 80.386719 9.644531 C 81.105469 17.769531 80.707031 33.609375 80.429688 41.816406 C 83.460938 42.082031 86.289062 43.058594 88.671875 44.699219 C 91.152344 32.503906 91.804688 16.085938 91.921875 12.167969 C 87.722656 10.425781 82.792969 9.835938 80.386719 9.644531 Z M 80.386719 9.644531 "/></g><path style=" stroke:none;fill-rule:nonzero;fill:#666e78;fill-opacity:1;" d="M 93.632812 59 C 93.632812 67.132812 87.046875 73.75 78.953125 73.75 C 70.859375 73.75 64.273438 67.132812 64.273438 59 C 64.273438 50.863281 70.859375 44.246094 78.953125 44.246094 C 87.046875 44.246094 93.632812 50.863281 93.632812 59 Z M 93.632812 59 "/><g clip-rule="nonzero" clip-path="url(#c2ddd2d189)"><path style=" stroke:none;fill-rule:nonzero;fill:#cbd0d7;fill-opacity:1;" d="M 61.710938 59 C 61.710938 65.453125 65.28125 71.027344 70.5 74.007812 C 64.644531 82.957031 55.941406 93.90625 45.40625 100.296875 C 44.519531 98.335938 43.777344 96.28125 43.160156 94.542969 C 42.464844 92.605469 41.917969 91.070312 41.351562 90.160156 C 39.953125 87.902344 36.558594 88.007812 33.828125 88.09375 C 33.035156 88.113281 31.9375 88.15625 31.308594 88.070312 C 32.96875 83.660156 34.082031 79.160156 35.15625 74.804688 C 35.667969 72.730469 36.171875 70.683594 36.726562 68.695312 C 37.085938 67.386719 36.769531 65.992188 36.367188 64.230469 C 35.449219 60.191406 33.910156 53.433594 38.464844 39.695312 C 39.425781 36.796875 40.769531 34.1875 42.582031 31.71875 C 42.855469 31.347656 42.882812 30.851562 42.707031 30.433594 L 38.960938 18.90625 C 43.117188 17.3125 58.859375 12.035156 78.078125 14.164062 C 78.398438 22.609375 78.089844 34.910156 77.859375 41.78125 C 68.871094 42.359375 61.710938 49.820312 61.710938 59 Z M 109.007812 139.722656 C 108.46875 138.28125 95.667969 104.210938 94.734375 96.816406 C 94.324219 93.597656 96.753906 90.484375 99.324219 87.183594 C 106.886719 79.023438 118.308594 55.621094 114.417969 37.75 C 112.53125 29.082031 107.21875 22.890625 98.640625 19.351562 C 97.171875 18.746094 95.714844 18.253906 94.261719 17.761719 C 93.890625 25.058594 92.988281 37.140625 90.910156 46.558594 C 94.15625 49.714844 96.195312 54.113281 96.195312 59 C 96.195312 68.554688 88.460938 76.328125 78.953125 76.328125 C 76.804688 76.328125 74.769531 75.882812 72.871094 75.160156 C 66.863281 84.417969 57.78125 95.875 46.550781 102.585938 C 47.992188 105.152344 49.773438 107.1875 52.011719 107.507812 C 54.828125 107.898438 58.148438 106.777344 61.359375 105.679688 C 65.789062 104.164062 69.96875 102.730469 72.550781 105.65625 C 82.144531 116.515625 72.328125 138.855469 71.90625 139.800781 C 71.773438 140.097656 71.539062 140.320312 71.265625 140.445312 L 109.75 140.476562 C 109.417969 140.339844 109.144531 140.085938 109.007812 139.722656 Z M 109.007812 139.722656 "/></g></g></svg>